<?xml version="1.0" encoding="UTF-8" standalone="no"?>
<!-- Created with Inkscape (http://www.inkscape.org/) -->

<svg
   xmlns:dc="http://purl.org/dc/elements/1.1/"
   xmlns:cc="http://creativecommons.org/ns#"
   xmlns:rdf="http://www.w3.org/1999/02/22-rdf-syntax-ns#"
   xmlns:svg="http://www.w3.org/2000/svg"
   xmlns="http://www.w3.org/2000/svg"
   version="1.1"
   width="12"
   height="24"
   id="svg3041"
   xml:space="preserve"><metadata
     id="metadata3047"><rdf:RDF><cc:Work
         rdf:about=""><dc:format>image/svg+xml</dc:format><dc:type
           rdf:resource="http://purl.org/dc/dcmitype/StillImage" /><dc:title></dc:title></cc:Work></rdf:RDF></metadata><defs
     id="defs3045"><clipPath
       id="clipPath3055"><path
         d="m 0,26.474 17.174,0 L 17.174,0 0,0 0,26.474 z"
         id="path3057" /></clipPath></defs><g
     transform="matrix(1.25,0,0,-1.25,0,24)"
     id="g3049"><g
       transform="scale(0.55898451,0.72523986)"
       id="g3051"
       style="fill:#ffffff"><g
         clip-path="url(#clipPath3055)"
         id="g3053"
         style="fill:#ffffff"><g
           transform="translate(0,0.5435)"
           id="g3059"
           style="fill:#ffffff"><path
             d="m 0,0 0,2.085 12.908,10.182 c 0.127,0.105 0.203,0.261 0.203,0.428 0,0.164 -0.076,0.322 -0.203,0.426 L 0,23.303 0,25.389 c 0,0.207 0.119,0.398 0.305,0.487 0.187,0.091 0.412,0.068 0.574,-0.063 L 16.971,13.121 c 0.127,-0.104 0.203,-0.262 0.203,-0.426 0,-0.167 -0.076,-0.323 -0.203,-0.428 L 0.879,-0.427 C 0.717,-0.557 0.492,-0.579 0.305,-0.489 0.119,-0.4 0,-0.208 0,0"
             id="path3061"
             style="fill:#ffffff;fill-opacity:1;fill-rule:nonzero;stroke:none" /></g></g></g></g></svg>