<?xml version="1.0" encoding="UTF-8" standalone="no"?>
<!-- Created with Inkscape (http://www.inkscape.org/) -->

<svg
   xmlns:dc="http://purl.org/dc/elements/1.1/"
   xmlns:cc="http://creativecommons.org/ns#"
   xmlns:rdf="http://www.w3.org/1999/02/22-rdf-syntax-ns#"
   xmlns:svg="http://www.w3.org/2000/svg"
   xmlns="http://www.w3.org/2000/svg"
   version="1.1"
   width="50"
   height="38"
   id="svg2985"
   xml:space="preserve"><metadata
     id="metadata2991"><rdf:RDF><cc:Work
         rdf:about=""><dc:format>image/svg+xml</dc:format><dc:type
           rdf:resource="http://purl.org/dc/dcmitype/StillImage" /><dc:title></dc:title></cc:Work></rdf:RDF></metadata><defs
     id="defs2989" /><g
     transform="matrix(1.25,0,0,-1.25,2.497327e-4,37.999625)"
     id="g2993"><g
       transform="matrix(0.81624324,0,0,0.81635722,5.2712621,10.15102)"
       id="g2995"
       style="fill:#ffffff"><path
         d="m 0,0 0,8.947 -4.151,0 0,-7.619 3.22,-2.72 L 0,0 z"
         id="path2997"
         style="fill:#ffffff;fill-opacity:1;fill-rule:nonzero;stroke:none" /></g><g
       transform="matrix(0.81624324,0,0,0.81635722,1.8827915,-5.5092834e-5)"
       id="g2999"
       style="fill:#ffffff"><path
         d="m 0,0 4.152,0 0,8.372 L 3.229,7.139 0,11.183 0,0 z"
         id="path3001"
         style="fill:#ffffff;fill-opacity:1;fill-rule:nonzero;stroke:none" /></g><g
       transform="matrix(0.81624324,0,0,0.81635722,6.4690174,8.4352824)"
       id="g3003"
       style="fill:#ffffff"><path
         d="m 0,0 0,-10.333 4.152,0 0,14.065 L 3.515,4.697 0,0 z"
         id="path3005"
         style="fill:#ffffff;fill-opacity:1;fill-rule:nonzero;stroke:none" /></g><g
       transform="matrix(0.81624324,0,0,0.81635722,9.8578145,15.839153)"
       id="g3007"
       style="fill:#ffffff"><path
         d="m 0,0 0,9.71 -4.151,0 0,-14.481 3.68,5.505 L 0,0 z"
         id="path3009"
         style="fill:#ffffff;fill-opacity:1;fill-rule:nonzero;stroke:none" /></g><g
       transform="matrix(0.81624324,0,0,0.81635722,14.444857,20.686274)"
       id="g3011"
       style="fill:#ffffff"><path
         d="m 0,0 -4.152,0 0,-8.226 L 0,-14.702 0,0 z"
         id="path3013"
         style="fill:#ffffff;fill-opacity:1;fill-rule:nonzero;stroke:none" /></g><g
       transform="matrix(0.81624324,0,0,0.81635722,11.055978,-5.5092834e-5)"
       id="g3015"
       style="fill:#ffffff"><path
         d="m 0,0 4.152,0 0,5.544 L 0,11.84 0,0 z"
         id="path3017"
         style="fill:#ffffff;fill-opacity:1;fill-rule:nonzero;stroke:none" /></g><g
       transform="matrix(0.81624324,0,0,0.81635722,15.642938,-5.5092834e-5)"
       id="g3019"
       style="fill:#ffffff"><path
         d="M 0,0 2.188,0 0,3.317 0,0 z"
         id="path3021"
         style="fill:#ffffff;fill-opacity:1;fill-rule:nonzero;stroke:none" /></g><g
       transform="matrix(0.81624324,0,0,0.81635722,19.031409,7.1964604)"
       id="g3023"
       style="fill:#ffffff"><path
         d="m 0,0 0,22.909 -4.151,0 0,-23.376 2.188,-3.412 L 0,0 z"
         id="path3025"
         style="fill:#ffffff;fill-opacity:1;fill-rule:nonzero;stroke:none" /></g><g
       transform="matrix(0.81624324,0,0,0.81635722,17.428797,-5.5092834e-5)"
       id="g3027"
       style="fill:#ffffff"><path
         d="m 0,0 1.964,0 0,3.672 L 0,0 z"
         id="path3029"
         style="fill:#ffffff;fill-opacity:1;fill-rule:nonzero;stroke:none" /></g><g
       transform="matrix(0.81624324,0,0,0.81635722,20.229164,5.2370397)"
       id="g3031"
       style="fill:#ffffff"><path
         d="m 0,0 0,-6.415 4.153,0 0,13.285 L 3.975,7.432 0,0 z"
         id="path3033"
         style="fill:#ffffff;fill-opacity:1;fill-rule:nonzero;stroke:none" /></g><g
       transform="matrix(0.81624324,0,0,0.81635722,23.61837,30.3997)"
       id="g3035"
       style="fill:#ffffff"><path
         d="m 0,0 -4.152,0 0,-25.523 L 0,-17.323 0,0 z"
         id="path3037"
         style="fill:#ffffff;fill-opacity:1;fill-rule:nonzero;stroke:none" /></g><g
       transform="matrix(0.81624324,0,0,0.81635722,24.81539,-5.5092834e-5)"
       id="g3039"
       style="fill:#ffffff"><path
         d="m 0,0 4.153,0 0,3.915 L 2.356,1.125 0,8.618 0,0 z"
         id="path3041"
         style="fill:#ffffff;fill-opacity:1;fill-rule:nonzero;stroke:none" /></g><g
       transform="matrix(0.81624324,0,0,0.81635722,28.205004,6.8521209)"
       id="g3043"
       style="fill:#ffffff"><path
         d="m 0,0 0,15.205 -4.152,0 0,-7.663 3.01,-9.329 L 0,0 z"
         id="path3045"
         style="fill:#ffffff;fill-opacity:1;fill-rule:nonzero;stroke:none" /></g><g
       transform="matrix(0.81624324,0,0,0.81635722,29.403085,5.057033)"
       id="g3047"
       style="fill:#ffffff"><path
         d="m 0,0 0,-6.195 4.152,0 0,12.642 L 0,0 z"
         id="path3049"
         style="fill:#ffffff;fill-opacity:1;fill-rule:nonzero;stroke:none" /></g><g
       transform="matrix(0.81624324,0,0,0.81635722,32.791556,17.455132)"
       id="g3051"
       style="fill:#ffffff"><path
         d="m 0,0 -4.151,0 0,-10.69 L 0,-4.193 0,0 z"
         id="path3053"
         style="fill:#ffffff;fill-opacity:1;fill-rule:nonzero;stroke:none" /></g><g
       transform="matrix(0.81624324,0,0,0.81635722,33.411901,20.178336)"
       id="g3055"
       style="fill:#ffffff"><path
         d="m 0,0 2.643,-3.205 -10.308,-16.135 -4.321,13.392 -7.547,-14.909 -9.803,15.289 -5.976,-8.94 -5.622,4.748 5.524,-6.92 5.941,7.94 9.845,-14.931 7.565,14.144 4.034,-12.834 L 3.579,-4.341 6.718,-8.148 8.071,2.246 0,0 z"
         id="path3057"
         style="fill:#ffffff;fill-opacity:1;fill-rule:nonzero;stroke:none" /></g></g></svg>