<?xml version="1.0" encoding="UTF-8" standalone="no"?>
<!-- Created with Inkscape (http://www.inkscape.org/) -->

<svg
   xmlns:dc="http://purl.org/dc/elements/1.1/"
   xmlns:cc="http://creativecommons.org/ns#"
   xmlns:rdf="http://www.w3.org/1999/02/22-rdf-syntax-ns#"
   xmlns:svg="http://www.w3.org/2000/svg"
   xmlns="http://www.w3.org/2000/svg"
   version="1.1"
   width="50"
   height="40"
   id="svg2985"
   xml:space="preserve"><metadata
     id="metadata2991"><rdf:RDF><cc:Work
         rdf:about=""><dc:format>image/svg+xml</dc:format><dc:type
           rdf:resource="http://purl.org/dc/dcmitype/StillImage" /><dc:title></dc:title></cc:Work></rdf:RDF></metadata><defs
     id="defs2989"><clipPath
       id="clipPath2999"><path
         d="m 0,39.416 48.634,0 L 48.634,0 0,0 0,39.416 z"
         id="path3001" /></clipPath></defs><g
     transform="matrix(1.25,0,0,-1.25,0,40.0005)"
     id="g2993"><g
       transform="matrix(0.82247326,0,0,0.81187365,0,7.5250539e-5)"
       id="g2995"
       style="fill:#ffffff"><g
         clip-path="url(#clipPath2999)"
         id="g2997"
         style="fill:#ffffff"><g
           transform="translate(48.6338,1.2974)"
           id="g3003"
           style="fill:#ffffff"><path
             d="m 0,0 0,9.366 c 0,0.361 -0.146,0.685 -0.384,0.919 -0.235,0.235 -0.562,0.378 -0.928,0.378 l -3.948,0 c -4.108,4.307 -10.646,7.155 -18.082,7.385 l 0,8.107 3.763,0 c 0.144,0 0.281,0.033 0.41,0.082 0.118,0.039 0.221,0.097 0.321,0.166 0.294,0.201 0.494,0.507 0.544,0.873 0.004,0.014 0.006,0.028 0.01,0.042 0.004,0.046 0.026,0.086 0.026,0.134 l 0,9.369 c 0,0.443 -0.237,0.815 -0.58,1.049 -0.211,0.145 -0.452,0.248 -0.731,0.248 l -9.452,0 c -0.18,0 -0.351,-0.036 -0.508,-0.101 -10e-4,-0.001 -0.002,-0.002 -0.004,-0.002 -0.469,-0.198 -0.8,-0.658 -0.8,-1.194 l 0,-9.369 c 0,-0.536 0.331,-0.995 0.8,-1.193 0.002,-0.001 0.003,-0.001 0.004,-0.002 0.157,-0.065 0.328,-0.102 0.508,-0.102 l 3.763,0 0,-8.107 c -7.434,-0.229 -13.973,-3.077 -18.081,-7.385 l -3.969,0 -0.007,0 c -0.002,0 -0.004,-10e-4 -0.006,-10e-4 -0.172,-0.002 -0.336,-0.036 -0.486,-0.097 -0.014,-0.005 -0.028,-0.012 -0.041,-0.019 -0.139,-0.062 -0.264,-0.145 -0.371,-0.247 -0.013,-0.012 -0.025,-0.024 -0.038,-0.037 -0.106,-0.11 -0.195,-0.237 -0.257,-0.379 -0.002,-0.007 -0.006,-0.013 -0.008,-0.02 -0.065,-0.153 -0.102,-0.32 -0.102,-0.497 l 0,-6.827 0,-2.539 c 0,-0.09 0.01,-0.178 0.028,-0.262 0.017,-0.081 0.043,-0.158 0.074,-0.234 0.002,-0.006 0.004,-0.011 0.008,-0.018 0.062,-0.144 0.152,-0.274 0.261,-0.385 0.01,-0.01 0.018,-0.02 0.029,-0.029 0.112,-0.108 0.243,-0.196 0.386,-0.259 0.008,-0.003 0.015,-0.007 0.023,-0.01 0.154,-0.064 0.324,-0.1 0.5,-0.1 l 0.007,0 9.446,0 0.004,0 0.004,0 c 0.002,0 0.004,10e-4 0.006,10e-4 0.004,0 0.009,0.002 0.015,0.002 0.166,0.003 0.324,0.036 0.471,0.095 0.016,0.006 0.029,0.014 0.045,0.021 0.137,0.062 0.26,0.144 0.367,0.245 0.014,0.013 0.026,0.027 0.039,0.041 0.107,0.109 0.194,0.236 0.256,0.377 0.004,0.007 0.006,0.014 0.01,0.021 0.064,0.152 0.099,0.318 0.099,0.494 l 0,2.539 0,6.827 c 0,0.177 -0.035,0.344 -0.099,0.497 -0.004,0.007 -0.006,0.013 -0.01,0.02 -0.063,0.142 -0.15,0.27 -0.258,0.38 -0.012,0.012 -0.023,0.024 -0.035,0.035 -0.109,0.104 -0.236,0.189 -0.377,0.251 -0.012,0.005 -0.022,0.011 -0.034,0.016 -0.153,0.062 -0.319,0.096 -0.495,0.097 -0.001,0 -0.002,10e-4 -0.004,10e-4 l -0.004,0 -2.903,0 c 3.758,3.41 9.286,5.629 15.507,5.839 l 0,-5.839 -3.763,0 c -0.723,0 -1.308,-0.575 -1.308,-1.297 l 0,-6.218 0,-0.364 0,-2.578 0,-0.085 0,-0.121 c 0,-0.039 0.019,-0.071 0.022,-0.109 0.005,-0.034 0.012,-0.066 0.019,-0.098 0.08,-0.478 0.407,-0.86 0.861,-1.009 0.129,-0.049 0.263,-0.081 0.406,-0.081 l 9.452,0 c 0.144,0 0.279,0.032 0.409,0.081 0.455,0.149 0.778,0.531 0.858,1.009 0.008,0.032 0.014,0.065 0.02,0.098 0.003,0.038 0.021,0.07 0.021,0.109 l 0,0.121 0,0.085 0,2.578 0,0.364 0,6.218 c 0,0.722 -0.578,1.297 -1.308,1.297 l -3.763,0 0,5.839 c 6.223,-0.21 11.75,-2.43 15.509,-5.839 l -2.93,0 c -0.34,0 -0.642,-0.134 -0.875,-0.343 -0.265,-0.237 -0.438,-0.57 -0.438,-0.954 l 0,-9.366 c 0,-0.046 0.022,-0.085 0.026,-0.13 0.004,-0.018 0.008,-0.036 0.012,-0.054 0.045,-0.303 0.181,-0.572 0.4,-0.768 0.133,-0.121 0.292,-0.207 0.468,-0.264 0.129,-0.049 0.265,-0.081 0.407,-0.081 l 9.451,0 c 0.145,0 0.28,0.032 0.409,0.081 0.197,0.064 0.379,0.157 0.519,0.298 0.196,0.193 0.307,0.455 0.348,0.738 0.003,0.016 0.007,0.031 0.009,0.046 C -0.022,-0.088 0,-0.047 0,0"
             id="path3005"
             style="fill:#ffffff;fill-opacity:1;fill-rule:nonzero;stroke:none" /></g></g></g></g></svg>