<?xml version="1.0" encoding="UTF-8" standalone="no"?>
<!-- Created with Inkscape (http://www.inkscape.org/) -->

<svg
   xmlns:dc="http://purl.org/dc/elements/1.1/"
   xmlns:cc="http://creativecommons.org/ns#"
   xmlns:rdf="http://www.w3.org/1999/02/22-rdf-syntax-ns#"
   xmlns:svg="http://www.w3.org/2000/svg"
   xmlns="http://www.w3.org/2000/svg"
   version="1.1"
   width="48"
   height="48"
   id="svg2985"
   xml:space="preserve"><metadata
     id="metadata2991"><rdf:RDF><cc:Work
         rdf:about=""><dc:format>image/svg+xml</dc:format><dc:type
           rdf:resource="http://purl.org/dc/dcmitype/StillImage" /><dc:title></dc:title></cc:Work></rdf:RDF></metadata><defs
     id="defs2989"><clipPath
       id="clipPath2999"><path
         d="m 0,48.5 49.019,0 0,-48.5 L 0,0 0,48.5 z"
         id="path3001" /></clipPath></defs><g
     transform="matrix(1.25,0,0,-1.25,3.75e-4,48.00025)"
     id="g2993"><g
       id="g2995"
       style="fill:#968abb;fill-opacity:1"><g
         clip-path="url(#clipPath2999)"
         id="g2997"
         style="fill:#968abb;fill-opacity:1"><g
           transform="matrix(0.78336971,0,0,0.79175258,-6.4989086e-5,4.1649485e-5)"
           id="g3811"><g
             transform="translate(24.5107,3.7842)"
             id="g3003"
             style="fill:#968abb;fill-opacity:1"><path
               d="m 0,0 c -11.426,0 -20.686,9.162 -20.686,20.465 0,11.306 9.26,20.466 20.686,20.466 11.419,0 20.683,-9.16 20.683,-20.466 C 20.683,9.162 11.419,0 0,0 m 0,44.716 c -13.534,0 -24.511,-10.86 -24.511,-24.251 0,-13.394 10.977,-24.249 24.511,-24.249 13.535,0 24.508,10.855 24.508,24.249 0,13.391 -10.973,24.251 -24.508,24.251"
               id="path3005"
               style="fill:#968abb;fill-opacity:1;fill-rule:nonzero;stroke:none" /></g><g
             transform="translate(25.2402,41.1602)"
             id="g3007"
             style="fill:#968abb;fill-opacity:1"><path
               d="m 0,0 c 0,-0.395 -0.33,-0.723 -0.729,-0.723 -0.406,0 -0.734,0.328 -0.734,0.723 l 0,1.934 c 0,0.4 0.328,0.722 0.734,0.722 C -0.33,2.656 0,2.334 0,1.934 L 0,0 z"
               id="path3009"
               style="fill:#968abb;fill-opacity:1;fill-rule:nonzero;stroke:none" /></g><g
             transform="translate(25.2402,5.1777)"
             id="g3011"
             style="fill:#968abb;fill-opacity:1"><path
               d="m 0,0 c 0,-0.396 -0.33,-0.722 -0.729,-0.722 -0.406,0 -0.734,0.326 -0.734,0.722 l 0,1.935 c 0,0.397 0.328,0.721 0.734,0.721 C -0.33,2.656 0,2.332 0,1.935 L 0,0 z"
               id="path3013"
               style="fill:#968abb;fill-opacity:1;fill-rule:nonzero;stroke:none" /></g><g
             transform="translate(7.8086,24.9775)"
             id="g3015"
             style="fill:#968abb;fill-opacity:1"><path
               d="M 0,0 C 0.401,0 0.73,-0.327 0.73,-0.729 0.73,-1.126 0.401,-1.452 0,-1.452 l -1.948,0 c -0.41,0 -0.731,0.326 -0.731,0.723 0,0.402 0.321,0.729 0.731,0.729 L 0,0 z"
               id="path3017"
               style="fill:#968abb;fill-opacity:1;fill-rule:nonzero;stroke:none" /></g><g
             transform="translate(43.3809,24.9775)"
             id="g3019"
             style="fill:#968abb;fill-opacity:1"><path
               d="M 0,0 C 0.405,0 0.736,-0.327 0.736,-0.729 0.736,-1.126 0.405,-1.452 0,-1.452 l -1.951,0 c -0.403,0 -0.731,0.326 -0.731,0.723 0,0.402 0.328,0.729 0.731,0.729 L 0,0 z"
               id="path3021"
               style="fill:#968abb;fill-opacity:1;fill-rule:nonzero;stroke:none" /></g><g
             transform="translate(27.0527,22.3184)"
             id="g3023"
             style="fill:#968abb;fill-opacity:1;stroke:#968abb;stroke-opacity:1"><path
               d="M 0,0 -10.905,4.301"
               id="path3025"
               style="fill:#968abb;fill-opacity:1;fill-rule:nonzero;stroke:#968abb;stroke-width:1;stroke-linecap:butt;stroke-linejoin:miter;stroke-miterlimit:10;stroke-opacity:1;stroke-dasharray:none" /></g><g
             transform="translate(23.8027,21.0957)"
             id="g3027"
             style="fill:#968abb;fill-opacity:1;stroke:#968abb;stroke-opacity:1"><path
               d="M 0,0 7.64,13.723"
               id="path3029"
               style="fill:#968abb;fill-opacity:1;fill-rule:nonzero;stroke:#968abb;stroke-width:1;stroke-linecap:butt;stroke-linejoin:miter;stroke-miterlimit:10;stroke-opacity:1;stroke-dasharray:none" /></g><g
             transform="translate(22.2637,22.7949)"
             id="g3031"
             style="fill:#968abb;fill-opacity:1;stroke:#968abb;stroke-opacity:1"><path
               d="M 0,0 16.505,1.673"
               id="path3033"
               style="fill:#968abb;fill-opacity:1;fill-rule:nonzero;stroke:#968abb;stroke-width:1;stroke-linecap:butt;stroke-linejoin:miter;stroke-miterlimit:10;stroke-opacity:1;stroke-dasharray:none" /></g></g></g></g></g></svg>