<?xml version="1.0" encoding="UTF-8" standalone="no"?>
<!-- Created with Inkscape (http://www.inkscape.org/) -->

<svg
   xmlns:dc="http://purl.org/dc/elements/1.1/"
   xmlns:cc="http://creativecommons.org/ns#"
   xmlns:rdf="http://www.w3.org/1999/02/22-rdf-syntax-ns#"
   xmlns:svg="http://www.w3.org/2000/svg"
   xmlns="http://www.w3.org/2000/svg"
   version="1.1"
   width="48"
   height="48"
   id="svg3881"
   xml:space="preserve"><metadata
     id="metadata3887"><rdf:RDF><cc:Work
         rdf:about=""><dc:format>image/svg+xml</dc:format><dc:type
           rdf:resource="http://purl.org/dc/dcmitype/StillImage" /><dc:title></dc:title></cc:Work></rdf:RDF></metadata><defs
     id="defs3885"><clipPath
       id="clipPath3895"><path
         d="m 0,29.9 29.897,0 0,-29.9 L 0,0 0,29.9 z"
         id="path3897" /></clipPath></defs><g
     transform="matrix(1.25,0,0,-1.25,-2.5e-4,48.000124)"
     id="g3889"><g
       transform="matrix(1.2844184,0,0,1.2842852,-5.688368e-5,-2.8428523e-5)"
       id="g3891"
       style="fill:#5fbabf;fill-opacity:1"><g
         clip-path="url(#clipPath3895)"
         id="g3893"
         style="fill:#5fbabf;fill-opacity:1"><g
           transform="translate(14.9492,18.0429)"
           id="g3899"
           style="fill:#5fbabf;fill-opacity:1"><path
             d="m 0,0 c -1.707,0 -3.089,-1.385 -3.089,-3.092 0,-1.709 1.382,-3.092 3.089,-3.092 1.708,0 3.091,1.383 3.091,3.092 C 3.091,-1.385 1.708,0 0,0"
             id="path3901"
             style="fill:#5fbabf;fill-opacity:1;fill-rule:nonzero;stroke:none" /></g><g
           transform="translate(23.7422,6.1621)"
           id="g3903"
           style="fill:#5fbabf;fill-opacity:1"><path
             d="m 0,0 c -2.263,-2.256 -5.352,-3.641 -8.793,-3.645 -3.443,0.004 -6.531,1.389 -8.791,3.645 -2.254,2.258 -3.639,5.346 -3.642,8.789 0.003,3.441 1.388,6.531 3.642,8.793 2.26,2.252 5.348,3.641 8.791,3.641 3.441,0 6.53,-1.389 8.793,-3.641 C 2.254,15.32 3.64,12.23 3.641,8.789 3.64,5.346 2.254,2.258 0,0 M -8.793,23.738 C -17.05,23.738 -23.74,17.047 -23.742,8.789 -23.74,0.531 -17.05,-6.158 -8.793,-6.162 -0.536,-6.158 6.153,0.531 6.155,8.789 6.153,17.047 -0.536,23.738 -8.793,23.738"
             id="path3905"
             style="fill:#5fbabf;fill-opacity:1;fill-rule:nonzero;stroke:none" /></g><g
           transform="translate(19.9521,10.2285)"
           id="g3907"
           style="fill:#5fbabf;fill-opacity:1"><path
             d="m 0,0 c -1.286,-1.283 -3.043,-2.07 -5.003,-2.074 -1.957,0.004 -3.715,0.791 -5,2.074 -1.285,1.285 -2.07,3.041 -2.072,5.002 0.002,1.957 0.787,3.715 2.072,5.002 1.285,1.281 3.043,2.072 5,2.072 1.96,0 3.717,-0.791 5.003,-2.072 C 1.284,8.717 2.071,6.959 2.074,5.002 2.071,3.041 1.284,1.285 0,0 m -5.003,14.52 c -5.256,0 -9.514,-4.262 -9.517,-9.518 0.003,-5.26 4.261,-9.516 9.517,-9.52 5.258,0.004 9.516,4.26 9.52,9.52 -0.004,5.256 -4.262,9.518 -9.52,9.518"
             id="path3909"
             style="fill:#5fbabf;fill-opacity:1;fill-rule:nonzero;stroke:none" /></g></g></g></g></svg>