<?xml version="1.0" encoding="UTF-8" standalone="no"?>
<!-- Created with Inkscape (http://www.inkscape.org/) -->

<svg
   xmlns:dc="http://purl.org/dc/elements/1.1/"
   xmlns:cc="http://creativecommons.org/ns#"
   xmlns:rdf="http://www.w3.org/1999/02/22-rdf-syntax-ns#"
   xmlns:svg="http://www.w3.org/2000/svg"
   xmlns="http://www.w3.org/2000/svg"
   version="1.1"
   width="50"
   height="38"
   id="svg2985"
   xml:space="preserve"><metadata
     id="metadata2991"><rdf:RDF><cc:Work
         rdf:about=""><dc:format>image/svg+xml</dc:format><dc:type
           rdf:resource="http://purl.org/dc/dcmitype/StillImage" /><dc:title></dc:title></cc:Work></rdf:RDF></metadata><defs
     id="defs2989"><clipPath
       id="clipPath2999"><path
         d="m 0,37.331 49.19,0 L 49.19,0 0,0 0,37.331 z"
         id="path3001" /></clipPath></defs><g
     transform="matrix(1.25,0,0,-1.25,0,38.0005)"
     id="g2993"><g
       transform="matrix(0.81317506,0,0,0.81434534,0,7.4261866e-5)"
       id="g2995"
       style="fill:#ffffff"><g
         clip-path="url(#clipPath2999)"
         id="g2997"
         style="fill:#ffffff"><g
           transform="translate(6.1729,32.5684)"
           id="g3003"
           style="fill:#ffffff"><path
             d="m 0,0 -5.5,-0.934 0,-6.834 L 0,-6.834 0,0 z m 0,-19.427 -5.5,1.345 0,-6.833 5.5,-1.548 0,7.036 z m -6.173,2.48 26.145,-6.44 c 1.068,-0.394 2.164,-0.596 3.284,-0.596 2.902,0 5.527,1.151 7.863,3.444 2.346,2.31 3.522,4.934 3.522,7.876 0,2.599 -1.16,4.827 -3.483,6.701 -2.323,1.872 -4.867,2.824 -7.639,2.824 -1.383,0 -2.677,-0.278 -3.892,-0.805 l -25.8,-4.63 0,8.044 24.801,4.619 c 1.515,0.449 3.151,0.673 4.891,0.673 5.001,0 9.499,-1.756 13.508,-5.262 3.998,-3.512 5.99,-7.665 5.99,-12.492 0,-5.146 -2.085,-9.682 -6.267,-13.639 -4.168,-3.96 -8.811,-5.938 -13.902,-5.938 -1.782,0 -3.524,0.289 -5.224,0.871 l -23.797,6.105 0,8.645 z"
             id="path3005"
             style="fill:#ffffff;fill-opacity:1;fill-rule:evenodd;stroke:none" /></g></g></g></g></svg>