<?xml version="1.0" encoding="UTF-8" standalone="no"?>
<!-- Created with Inkscape (http://www.inkscape.org/) -->

<svg
   xmlns:dc="http://purl.org/dc/elements/1.1/"
   xmlns:cc="http://creativecommons.org/ns#"
   xmlns:rdf="http://www.w3.org/1999/02/22-rdf-syntax-ns#"
   xmlns:svg="http://www.w3.org/2000/svg"
   xmlns="http://www.w3.org/2000/svg"
   version="1.1"
   width="48"
   height="48"
   id="svg4419"
   xml:space="preserve"><metadata
     id="metadata4425"><rdf:RDF><cc:Work
         rdf:about=""><dc:format>image/svg+xml</dc:format><dc:type
           rdf:resource="http://purl.org/dc/dcmitype/StillImage" /><dc:title></dc:title></cc:Work></rdf:RDF></metadata><defs
     id="defs4423"><clipPath
       id="clipPath4433"><path
         d="m 0,30.258 30.258,0 L 30.258,0 0,0 0,30.258 z"
         id="path4435" /></clipPath></defs><g
     transform="matrix(1.25,0,0,-1.25,0,48.000373)"
     id="g4427"><g
       id="g4429"><g
         transform="matrix(1.2690901,0,0,1.2690984,0,-8.0729533e-5)"
         clip-path="url(#clipPath4433)"
         id="g4431"
         style="fill:#a6d396;fill-opacity:1"><g
           transform="translate(15.1289,2.4043)"
           id="g4437"
           style="fill:#a6d396;fill-opacity:1"><path
             d="m 0,0 c -7.027,0 -12.725,5.697 -12.725,12.726 0,7.026 5.698,12.724 12.725,12.724 7.027,0 12.727,-5.698 12.727,-12.724 C 12.727,5.697 7.027,0 0,0 m 0,27.854 c -8.355,0 -15.129,-6.773 -15.129,-15.13 0,-8.355 6.774,-15.128 15.129,-15.128 8.355,0 15.129,6.773 15.129,15.128 0,8.357 -6.774,15.13 -15.129,15.13"
             id="path4439"
             style="fill:#a6d396;fill-opacity:1;fill-rule:nonzero;stroke:none" /></g><g
           transform="translate(25.8535,20.2685)"
           id="g4441"
           style="fill:#a6d396;fill-opacity:1"><path
             d="m 0,0 -1.762,1.762 c -0.322,0.324 -0.849,0.324 -1.172,0 l -10.558,-10.559 -5.024,5.061 c -0.324,0.323 -0.847,0.323 -1.173,0 l -1.76,-1.761 c -0.324,-0.322 -0.324,-0.851 0,-1.175 l 5.586,-5.626 0.015,-0.025 1.219,-1.219 0.283,-0.281 0.26,-0.262 c 0.322,-0.32 0.85,-0.32 1.174,0 L 0,-1.173 C 0.324,-0.85 0.324,-0.322 0,0"
             id="path4443"
             style="fill:#a6d396;fill-opacity:1;fill-rule:nonzero;stroke:none" /></g></g></g></g></svg>