<?xml version="1.0" encoding="UTF-8" standalone="no"?>
<!-- Created with Inkscape (http://www.inkscape.org/) -->

<svg
   xmlns:dc="http://purl.org/dc/elements/1.1/"
   xmlns:cc="http://creativecommons.org/ns#"
   xmlns:rdf="http://www.w3.org/1999/02/22-rdf-syntax-ns#"
   xmlns:svg="http://www.w3.org/2000/svg"
   xmlns="http://www.w3.org/2000/svg"
   version="1.1"
   width="50"
   height="41"
   id="svg2985"
   xml:space="preserve"><metadata
     id="metadata2991"><rdf:RDF><cc:Work
         rdf:about=""><dc:format>image/svg+xml</dc:format><dc:type
           rdf:resource="http://purl.org/dc/dcmitype/StillImage" /><dc:title></dc:title></cc:Work></rdf:RDF></metadata><defs
     id="defs2989"><clipPath
       id="clipPath2999"><path
         d="m 0,40.499 48.745,0 L 48.745,0 0,0 0,40.499 z"
         id="path3001" /></clipPath></defs><g
     transform="matrix(1.25,0,0,-1.25,0,41.000056)"
     id="g2993"><g
       transform="matrix(0.82059698,0,0,0.80989743,0,8.4072566e-6)"
       id="g2995"
       style="fill:#ffffff"><g
         clip-path="url(#clipPath2999)"
         id="g2997"
         style="fill:#ffffff"><g
           transform="translate(18.2813,28.2871)"
           id="g3003"
           style="fill:#ffffff"><path
             d="m 0,0 c -0.291,0.194 -0.607,0.355 -0.948,0.46 -0.337,0.107 -0.693,0.171 -1.067,0.171 -0.364,0 -0.789,-0.055 -1.237,-0.156 l -4.938,0 c -1.286,0 -2.334,-1.364 -2.334,-3.04 l 0,-9.314 c 0,-1.674 1.048,-3.036 2.334,-3.036 l 2.721,0 0.409,-3.935 0.802,0.259 2.241,-6.989 c 0.659,-2.048 2.853,-3.177 4.901,-2.52 2.051,0.656 3.181,2.853 2.523,4.901 l -0.196,0.612 0,-0.002 -2.051,6.395 3.592,1.16 c 0.121,-0.022 0.246,-0.039 0.368,-0.063 11.22,-2.243 19.707,-7.817 19.707,-7.817 l 0,34.48 C 21.142,4.201 5.985,1.004 0,0"
             id="path3005"
             style="fill:#ffffff;fill-opacity:1;fill-rule:nonzero;stroke:none" /></g><path
           d="m 46.399,3.862 2.346,0 0,36.637 -2.346,0 0,-36.637 z"
           id="path3007"
           style="fill:#ffffff;fill-opacity:1;fill-rule:nonzero;stroke:none" /><g
           transform="translate(6.2676,25.8848)"
           id="g3009"
           style="fill:#ffffff"><path
             d="m 0,0 c 0,0.635 0.152,1.223 0.409,1.71 l -2.1,0 c -2.03,0 -3.73,-1.332 -4.329,-3.158 l 2.631,0 c 0.423,0 0.767,-0.342 0.767,-0.765 0,-0.028 -0.012,-0.049 -0.012,-0.073 0,-0.017 0.008,-0.031 0.008,-0.047 0,-0.426 -0.342,-0.768 -0.765,-0.768 l -2.877,0 0,-0.877 2.879,0 c 0.423,0 0.767,-0.34 0.767,-0.763 0,-0.026 -0.012,-0.047 -0.012,-0.07 0,-0.019 0.008,-0.033 0.008,-0.05 0,-0.425 -0.342,-0.766 -0.765,-0.766 l -2.877,0 0,-0.877 2.879,0 c 0.423,0 0.767,-0.344 0.767,-0.768 0,-0.023 -0.012,-0.042 -0.012,-0.067 0,-0.017 0.008,-0.035 0.008,-0.05 0,-0.426 -0.342,-0.767 -0.765,-0.767 L -6.09,-8.179 c 0.551,-1.838 2.364,-3.169 4.399,-3.169 l 2.305,0 C 0.236,-10.805 0,-10.097 0,-9.31 L 0,0 z"
             id="path3011"
             style="fill:#ffffff;fill-opacity:1;fill-rule:nonzero;stroke:none" /></g></g></g></g></svg>