<?xml version="1.0" encoding="UTF-8" standalone="no"?>
<!-- Created with Inkscape (http://www.inkscape.org/) -->

<svg
   xmlns:dc="http://purl.org/dc/elements/1.1/"
   xmlns:cc="http://creativecommons.org/ns#"
   xmlns:rdf="http://www.w3.org/1999/02/22-rdf-syntax-ns#"
   xmlns:svg="http://www.w3.org/2000/svg"
   xmlns="http://www.w3.org/2000/svg"
   version="1.1"
   width="51"
   height="46"
   id="svg2985"
   xml:space="preserve"><metadata
     id="metadata2991"><rdf:RDF><cc:Work
         rdf:about=""><dc:format>image/svg+xml</dc:format><dc:type
           rdf:resource="http://purl.org/dc/dcmitype/StillImage" /><dc:title></dc:title></cc:Work></rdf:RDF></metadata><defs
     id="defs2989"><clipPath
       id="clipPath2999"><path
         d="m 0,44.913 48.865,0 L 48.865,0 0,0 0,44.913 z"
         id="path3001" /></clipPath></defs><g
     transform="matrix(1.25,0,0,-1.25,0,46)"
     id="g2993"><g
       transform="scale(0.83495344,0.81936188)"
       id="g2995"
       style="fill:#ffffff"><g
         clip-path="url(#clipPath2999)"
         id="g2997"
         style="fill:#ffffff"><g
           transform="translate(40.0942,42.9795)"
           id="g3003"
           style="fill:#ffffff"><path
             d="m 0,0 c -0.823,-0.368 -1.626,-0.769 -2.412,-1.195 0.795,-1.434 1.791,-2.867 2.999,-4.227 1.21,-1.361 2.513,-2.516 3.842,-3.47 0.509,0.734 0.997,1.495 1.45,2.272 1.572,2.692 2.727,5.619 2.892,8.532 C 5.868,2.08 2.839,1.256 0,0"
             id="path3005"
             style="fill:#ffffff;fill-opacity:1;fill-rule:nonzero;stroke:none" /></g><g
           transform="translate(12.4487,17.4766)"
           id="g3007"
           style="fill:#ffffff"><path
             d="M 0,0 -2.736,3.084 -6.988,2.353 -12.449,-0.696 0.624,11.019 7.208,10.156 0,0 z"
             id="path3009"
             style="fill:#ffffff;fill-opacity:1;fill-rule:nonzero;stroke:none" /></g><g
           transform="translate(18.3208,12.3447)"
           id="g3011"
           style="fill:#ffffff"><path
             d="M 0,0 2.741,-3.082 1.534,-7.238 -2.101,-12.345 10.972,-0.621 10.865,6.045 0,0 z"
             id="path3013"
             style="fill:#ffffff;fill-opacity:1;fill-rule:nonzero;stroke:none" /></g><g
           transform="translate(10.9253,9.0693)"
           id="g3015"
           style="fill:#ffffff"><path
             d="m 0,0 c -0.26,-1.219 -5.166,-2.704 -5.166,-2.704 0,0 1.714,3.855 2.86,4.714 C -1.875,2.335 0.404,2.12 0,0 m -3.337,4.531 c -3.018,-2.252 -7.511,-12.373 -7.511,-12.373 0,0 12.876,3.904 13.566,7.102 1.058,5.558 -4.919,6.121 -6.055,5.271"
             id="path3017"
             style="fill:#ffffff;fill-opacity:1;fill-rule:nonzero;stroke:none" /></g><g
           transform="translate(22.2495,28.208)"
           id="g3019"
           style="fill:#ffffff"><path
             d="m 0,0 -10.229,-13.714 0.913,-1.027 0.609,-0.685 0.915,-1.023 15.147,8.894"
             id="path3021"
             style="fill:#ffffff;fill-opacity:1;fill-rule:nonzero;stroke:none" /></g><g
           transform="translate(22.1831,28.2451)"
           id="g3023"
           style="fill:#ffffff"><path
             d="m 0,0 3.608,4.839 c 0,0 4.658,4.595 10.643,7.836 0.791,-1.437 1.791,-2.869 2.996,-4.228 1.211,-1.359 2.513,-2.514 3.842,-3.468 -3.883,-5.606 -8.958,-9.725 -8.958,-9.725 L 7.358,-7.552"
             id="path3025"
             style="fill:#ffffff;fill-opacity:1;fill-rule:nonzero;stroke:none" /></g></g></g></g></svg>