<?xml version="1.0" encoding="UTF-8" standalone="no"?>
<!-- Created with Inkscape (http://www.inkscape.org/) -->

<svg
   xmlns:dc="http://purl.org/dc/elements/1.1/"
   xmlns:cc="http://creativecommons.org/ns#"
   xmlns:rdf="http://www.w3.org/1999/02/22-rdf-syntax-ns#"
   xmlns:svg="http://www.w3.org/2000/svg"
   xmlns="http://www.w3.org/2000/svg"
   version="1.1"
   width="50"
   height="51"
   id="svg2985"
   xml:space="preserve"><metadata
     id="metadata2991"><rdf:RDF><cc:Work
         rdf:about=""><dc:format>image/svg+xml</dc:format><dc:type
           rdf:resource="http://purl.org/dc/dcmitype/StillImage" /><dc:title></dc:title></cc:Work></rdf:RDF></metadata><defs
     id="defs2989" /><g
     transform="matrix(1.25,0,0,-1.25,-5.00016e-4,51.000376)"
     id="g2993"><g
       transform="matrix(0.8579659,0,0,0.8660214,2.0663819,40.800301)"
       id="g2995"
       style="fill:#ffffff"><path
         d="m 0,0 0,-12.833 -2.408,0 0,-5.386 2.408,0 0,-28.893 5.077,0 0,28.893 2.404,0 0,5.386 -2.404,0 L 5.077,0 0,0 z"
         id="path2997"
         style="fill:#ffffff;fill-opacity:1;fill-rule:nonzero;stroke:none" /></g><g
       transform="matrix(0.8579659,0,0,0.8660214,12.172534,40.800301)"
       id="g2999"
       style="fill:#ffffff"><path
         d="m 0,0 0,-29.972 -2.409,0 0,-5.386 2.409,0 0,-11.754 5.075,0 0,11.754 2.408,0 0,5.386 -2.408,0 L 5.075,0 0,0 z"
         id="path3001"
         style="fill:#ffffff;fill-opacity:1;fill-rule:nonzero;stroke:none" /></g><g
       transform="matrix(0.8579659,0,0,0.8660214,22.277141,40.800301)"
       id="g3003"
       style="fill:#ffffff"><path
         d="m 0,0 0,-13.469 -2.408,0 0,-5.385 2.408,0 0,-28.258 5.077,0 0,28.258 2.406,0 0,5.385 -2.406,0 L 5.077,0 0,0 z"
         id="path3005"
         style="fill:#ffffff;fill-opacity:1;fill-rule:nonzero;stroke:none" /></g><g
       transform="matrix(0.8579659,0,0,0.8660214,33.579383,40.800301)"
       id="g3007"
       style="fill:#ffffff"><path
         d="m 0,0 0,-28.889 -2.406,0 0,-5.39 2.406,0 0,-12.833 5.079,0 0,12.833 2.405,0 0,5.39 -2.405,0 L 5.079,0 0,0 z"
         id="path3009"
         style="fill:#ffffff;fill-opacity:1;fill-rule:nonzero;stroke:none" /></g></g></svg>