<?xml version="1.0" encoding="UTF-8" standalone="no"?>
<!-- Created with Inkscape (http://www.inkscape.org/) -->

<svg
   xmlns:dc="http://purl.org/dc/elements/1.1/"
   xmlns:cc="http://creativecommons.org/ns#"
   xmlns:rdf="http://www.w3.org/1999/02/22-rdf-syntax-ns#"
   xmlns:svg="http://www.w3.org/2000/svg"
   xmlns="http://www.w3.org/2000/svg"
   version="1.1"
   width="186"
   height="36"
   id="svg2985"
   xml:space="preserve"><metadata
     id="metadata2991"><rdf:RDF><cc:Work
         rdf:about=""><dc:format>image/svg+xml</dc:format><dc:type
           rdf:resource="http://purl.org/dc/dcmitype/StillImage" /><dc:title></dc:title></cc:Work></rdf:RDF></metadata><defs
     id="defs2989"><clipPath
       id="clipPath2999"><path
         d="m 0,60.975 314.481,0 L 314.481,0 0,0 0,60.975 z"
         id="path3001" /></clipPath></defs><g
     transform="matrix(1.25,0,0,-1.25,-3.75e-4,36)"
     id="g2993"><g
       transform="matrix(0.47316189,0,0,0.47232705,1.5805143e-4,0)"
       id="g2995"><g
         clip-path="url(#clipPath2999)"
         id="g2997"><g
           transform="translate(30.4873,60.9747)"
           id="g3003"><path
             d="m 0,0 c 7.573,0 14.501,-2.763 19.833,-7.335 l -5.272,-5.271 c -2.441,1.736 -5.319,2.604 -8.196,2.604 -3.62,0 -7.243,-1.376 -9.993,-4.126 L -22.431,-32.93 c -1.08,-1.08 -1.08,-2.832 0,-3.912 l 16.077,-16.075 c 1.08,-1.081 2.832,-1.081 3.912,0 l 18.802,18.802 c 2.75,2.75 4.125,6.373 4.125,9.993 0,2.877 -0.868,5.755 -2.604,8.195 l 5.272,5.272 c 4.571,-5.331 7.334,-12.259 7.334,-19.832 0,-16.838 -13.65,-30.488 -30.487,-30.488 -16.838,0 -30.487,13.65 -30.487,30.488 C -30.487,-13.65 -16.838,0 0,0 m 4.009,-26.479 c 1.399,-1.399 3.668,-1.399 5.067,0 0.764,0.764 1.111,1.788 1.041,2.788 l 3.759,3.759 c 0.718,-1.296 1.077,-2.742 1.077,-4.19 0.001,-2.206 -0.835,-4.411 -2.505,-6.081 l -16.846,-16.846 -12.164,12.163 16.846,16.847 c 1.67,1.67 3.875,2.505 6.081,2.505 1.448,0 2.895,-0.359 4.19,-1.077 l -3.759,-3.76 c -1,0.071 -2.024,-0.276 -2.787,-1.041 -1.4,-1.399 -1.399,-3.667 0,-5.067"
             id="path3005"
             style="fill:#f39415;fill-opacity:1;fill-rule:evenodd;stroke:none" /></g><g
           transform="translate(86.5239,33.4991)"
           id="g3007"><path
             d="m 0,0 16.321,0 c 1.7,0 3.663,0.278 5.001,1.424 1.224,1.048 1.599,2.559 1.599,4.12 0,1.585 -0.415,3.062 -1.615,4.148 -1.289,1.165 -3.059,1.493 -4.745,1.493 L 0,11.185 0,0 z m 44.912,0 16.32,0 c 1.701,0 3.664,0.278 5.002,1.424 1.223,1.047 1.599,2.56 1.599,4.12 0,1.584 -0.416,3.063 -1.615,4.148 -1.288,1.164 -3.061,1.493 -4.745,1.493 l -16.561,0 0,-11.185 z m 152.751,0 16.32,0 c 1.698,0 3.666,0.281 5.002,1.424 1.221,1.045 1.6,2.564 1.6,4.12 0,1.58 -0.418,3.065 -1.617,4.148 -1.282,1.159 -3.067,1.493 -4.744,1.493 l -16.561,0 0,-11.185 z M 0,-6.167 0,-22.072 c 0,-0.599 -0.489,-1.088 -1.087,-1.088 l -4.281,0 c -0.599,0 -1.088,0.489 -1.088,1.088 l 0,38.265 c 0,0.599 0.489,1.088 1.088,1.088 l 22.001,0 c 3.394,0 6.799,-0.737 9.426,-3.008 2.495,-2.157 3.534,-5.045 3.534,-8.308 0,-3.347 -0.989,-6.382 -3.385,-8.763 -2.43,-2.416 -5.555,-3.369 -8.939,-3.369 L 0,-6.167 z m 65.752,0.329 9.382,-16.51 c 0.097,-0.172 0.097,-0.37 -0.004,-0.542 -0.1,-0.172 -0.272,-0.27 -0.471,-0.27 l -5.321,0 c -0.601,0 -1.117,0.3 -1.416,0.823 l -9.239,16.17 -13.771,0 0,-15.905 c 0,-0.599 -0.489,-1.088 -1.088,-1.088 l -4.28,0 c -0.599,0 -1.088,0.489 -1.088,1.088 l 0,38.265 c 0,0.599 0.489,1.088 1.088,1.088 l 22,0 c 3.419,0 6.838,-0.753 9.457,-3.073 2.512,-2.225 3.504,-5.225 3.504,-8.531 0,-2.894 -0.844,-5.516 -2.713,-7.738 -1.62,-1.926 -3.666,-3.154 -6.04,-3.777 m 18.708,-16.234 0,38.265 c 0,0.599 0.488,1.088 1.088,1.088 l 4.351,0 c 0.6,0 1.088,-0.489 1.088,-1.088 l 0,-38.265 c 0,-0.599 -0.488,-1.088 -1.088,-1.088 l -4.351,0 c -0.598,0 -1.088,0.489 -1.088,1.088 m 55.172,7.965 c -1.748,-2.995 -4.113,-5.454 -7.135,-7.225 -3.363,-1.969 -7.078,-2.836 -10.961,-2.836 -5.791,0 -10.891,1.855 -14.98,5.99 -4.114,4.159 -5.912,9.338 -5.912,15.155 0,5.825 1.796,11.019 5.923,15.178 4.092,4.123 9.17,5.99 14.957,5.99 3.584,0 7.026,-0.758 10.2,-2.448 2.785,-1.485 5.076,-3.534 6.884,-6.08 0.176,-0.247 0.237,-0.524 0.184,-0.823 -0.055,-0.299 -0.209,-0.537 -0.461,-0.707 l -3.592,-2.434 c -0.252,-0.171 -0.531,-0.227 -0.83,-0.165 -0.299,0.062 -0.533,0.223 -0.697,0.48 -1.104,1.728 -2.572,3.113 -4.389,4.148 -2.246,1.28 -4.707,1.861 -7.287,1.861 -4.012,0 -7.455,-1.327 -10.234,-4.236 -2.858,-2.988 -4.059,-6.658 -4.059,-10.764 0,-4.106 1.193,-7.782 4.057,-10.764 2.783,-2.9 6.23,-4.214 10.236,-4.214 2.754,0 5.344,0.652 7.674,2.13 2.107,1.335 3.742,3.183 5.017,5.292 0.161,0.266 0.397,0.434 0.7,0.501 0.302,0.066 0.588,0.01 0.845,-0.165 l 3.536,-2.418 c 0.472,-0.322 0.613,-0.952 0.324,-1.446 m 16.226,25.292 0,-11.185 19.397,0 c 0.598,0 1.086,-0.49 1.086,-1.087 l 0,-3.921 c 0,-0.598 -0.488,-1.087 -1.086,-1.087 l -19.397,0 0,-10.969 24.618,0 c 0.599,0 1.088,-0.49 1.088,-1.088 l 0,-3.92 c 0,-0.598 -0.491,-1.088 -1.088,-1.088 l -29.985,0 c -0.597,0 -1.088,0.489 -1.088,1.088 l 0,38.265 c 0,0.599 0.489,1.088 1.088,1.088 l 29.985,0 c 0.599,0 1.088,-0.49 1.088,-1.088 l 0,-3.921 c 0,-0.598 -0.491,-1.087 -1.088,-1.087 l -24.618,0 z m 62.645,-17.023 9.381,-16.51 c 0.097,-0.172 0.097,-0.37 -0.002,-0.542 -0.102,-0.171 -0.272,-0.27 -0.471,-0.27 l -5.322,0 c -0.6,0 -1.117,0.3 -1.416,0.823 l -9.238,16.17 -13.772,0 0,-15.905 c 0,-0.598 -0.49,-1.088 -1.088,-1.088 l -4.279,0 c -0.6,0 -1.088,0.489 -1.088,1.088 l 0,38.265 c 0,0.599 0.488,1.088 1.088,1.088 l 22,0 c 3.414,0 6.84,-0.756 9.457,-3.073 2.51,-2.222 3.502,-5.228 3.502,-8.531 0,-2.891 -0.846,-5.519 -2.711,-7.738 -1.617,-1.924 -3.668,-3.153 -6.041,-3.777"
             id="path3009"
             style="fill:#00578e;fill-opacity:1;fill-rule:evenodd;stroke:none" /></g></g></g></g></svg>