<?xml version="1.0" encoding="UTF-8" standalone="no"?>
<!-- Created with Inkscape (http://www.inkscape.org/) -->

<svg
   xmlns:dc="http://purl.org/dc/elements/1.1/"
   xmlns:cc="http://creativecommons.org/ns#"
   xmlns:rdf="http://www.w3.org/1999/02/22-rdf-syntax-ns#"
   xmlns:svg="http://www.w3.org/2000/svg"
   xmlns="http://www.w3.org/2000/svg"
   version="1.1"
   width="186"
   height="36"
   id="svg2985"
   xml:space="preserve"><metadata
     id="metadata2991"><rdf:RDF><cc:Work
         rdf:about=""><dc:format>image/svg+xml</dc:format><dc:type
           rdf:resource="http://purl.org/dc/dcmitype/StillImage" /><dc:title></dc:title></cc:Work></rdf:RDF></metadata><defs
     id="defs2989"><clipPath
       id="clipPath2999"><path
         d="m 0,40.502 208.89,0 L 208.89,0 0,0 0,40.502 z"
         id="path3001" /></clipPath></defs><g
     transform="matrix(1.25,0,0,-1.25,0,36)"
     id="g2993"><g
       transform="scale(0.71233664,0.71107775)"
       id="g2995"
       style="fill:#ffffff"><g
         clip-path="url(#clipPath2999)"
         id="g2997"
         style="fill:#ffffff"><g
           transform="translate(20.25,40.5019)"
           id="g3003"
           style="fill:#ffffff"><path
             d="M 0,0 C 5.031,0 9.633,-1.836 13.174,-4.872 L 9.672,-8.374 c -1.621,1.153 -3.533,1.729 -5.443,1.729 -2.405,0 -4.811,-0.913 -6.639,-2.74 l -12.488,-12.489 c -0.717,-0.717 -0.717,-1.881 0,-2.598 L -4.221,-35.15 c 0.717,-0.717 1.881,-0.717 2.6,0 l 12.488,12.489 c 1.826,1.827 2.74,4.233 2.74,6.639 0,1.91 -0.576,3.822 -1.73,5.443 l 3.502,3.502 c 3.037,-3.542 4.873,-8.144 4.873,-13.174 0,-11.185 -9.068,-20.251 -20.252,-20.251 -11.184,0 -20.25,9.066 -20.25,20.251 C -20.25,-9.067 -11.184,0 0,0 m 2.664,-17.589 c 0.93,-0.929 2.436,-0.929 3.365,0 0.508,0.508 0.739,1.188 0.692,1.852 l 2.496,2.497 c 0.476,-0.861 0.717,-1.821 0.717,-2.782 0,-1.466 -0.555,-2.931 -1.664,-4.04 L -2.922,-31.253 -11,-23.173 0.189,-11.982 c 1.11,1.109 2.575,1.664 4.04,1.664 0.96,0 1.921,-0.24 2.783,-0.716 l -2.496,-2.497 c -0.664,0.047 -1.346,-0.184 -1.852,-0.692 -0.93,-0.929 -0.93,-2.436 0,-3.366"
             id="path3005"
             style="fill:#ffffff;fill-opacity:1;fill-rule:evenodd;stroke:none" /></g><g
           transform="translate(57.4727,22.2509)"
           id="g3007"
           style="fill:#ffffff"><path
             d="m 0,0 10.84,0 c 1.131,0 2.433,0.185 3.322,0.946 0.813,0.697 1.063,1.699 1.063,2.738 0,1.052 -0.276,2.033 -1.073,2.753 C 13.295,7.212 12.119,7.43 11,7.43 L 0,7.43 0,0 z m 29.832,0 10.84,0 c 1.131,0 2.433,0.186 3.322,0.946 0.813,0.696 1.063,1.7 1.063,2.738 0,1.051 -0.276,2.033 -1.073,2.753 -0.855,0.774 -2.033,0.993 -3.152,0.993 l -11,0 0,-7.43 z m 101.463,0 10.84,0 c 1.129,0 2.435,0.187 3.322,0.946 0.812,0.695 1.062,1.703 1.062,2.738 0,1.048 -0.277,2.035 -1.072,2.753 -0.853,0.771 -2.037,0.993 -3.152,0.993 l -11,0 0,-7.43 z M 0,-4.097 0,-14.661 c 0,-0.398 -0.324,-0.722 -0.723,-0.722 l -2.843,0 c -0.399,0 -0.723,0.324 -0.723,0.722 l 0,25.417 c 0,0.398 0.324,0.723 0.723,0.723 l 14.613,0 c 2.256,0 4.517,-0.49 6.262,-1.998 1.658,-1.432 2.347,-3.351 2.347,-5.519 0,-2.223 -0.656,-4.238 -2.248,-5.82 -1.615,-1.605 -3.689,-2.239 -5.937,-2.239 L 0,-4.097 z m 43.674,0.219 6.232,-10.966 c 0.065,-0.115 0.065,-0.246 -0.002,-0.36 -0.066,-0.114 -0.179,-0.179 -0.312,-0.179 l -3.535,0 c -0.401,0 -0.743,0.198 -0.942,0.546 l -6.136,10.74 -9.147,0 0,-10.564 c 0,-0.398 -0.324,-0.722 -0.723,-0.722 l -2.843,0 c -0.397,0 -0.723,0.324 -0.723,0.722 l 0,25.417 c 0,0.398 0.326,0.723 0.723,0.723 l 14.613,0 c 2.271,0 4.543,-0.5 6.283,-2.041 1.668,-1.478 2.326,-3.47 2.326,-5.667 0,-1.922 -0.56,-3.665 -1.8,-5.139 -1.077,-1.28 -2.436,-2.096 -4.014,-2.51 m 12.428,-10.783 0,25.417 c 0,0.398 0.324,0.723 0.722,0.723 l 2.891,0 c 0.396,0 0.723,-0.325 0.723,-0.723 l 0,-25.417 c 0,-0.398 -0.327,-0.722 -0.723,-0.722 l -2.891,0 c -0.398,0 -0.722,0.324 -0.722,0.722 m 36.646,5.291 c -1.162,-1.989 -2.732,-3.623 -4.74,-4.799 -2.233,-1.309 -4.699,-1.884 -7.28,-1.884 -3.845,0 -7.234,1.232 -9.951,3.979 -2.732,2.762 -3.925,6.202 -3.925,10.066 0,3.869 1.193,7.32 3.933,10.082 2.719,2.739 6.092,3.979 9.936,3.979 2.38,0 4.666,-0.504 6.773,-1.626 C 89.346,9.44 90.867,8.08 92.068,6.389 92.185,6.224 92.226,6.04 92.189,5.842 92.154,5.643 92.051,5.485 91.885,5.372 L 89.498,3.755 C 89.33,3.642 89.144,3.604 88.947,3.645 c -0.199,0.042 -0.353,0.149 -0.463,0.32 -0.732,1.147 -1.709,2.068 -2.916,2.755 -1.49,0.85 -3.125,1.236 -4.84,1.236 -2.664,0 -4.951,-0.882 -6.798,-2.813 -1.897,-1.986 -2.696,-4.423 -2.696,-7.151 0,-2.727 0.793,-5.169 2.696,-7.15 1.847,-1.926 4.136,-2.798 6.798,-2.798 1.829,0 3.549,0.433 5.098,1.414 1.4,0.888 2.486,2.114 3.332,3.516 0.108,0.175 0.264,0.288 0.465,0.332 0.201,0.044 0.391,0.007 0.561,-0.11 l 2.349,-1.605 c 0.313,-0.215 0.408,-0.634 0.215,-0.961 m 10.779,16.8 0,-7.43 12.883,0 c 0.399,0 0.723,-0.325 0.723,-0.723 l 0,-2.603 c 0,-0.398 -0.326,-0.723 -0.723,-0.723 l -12.883,0 0,-7.286 16.352,0 c 0.398,0 0.722,-0.325 0.722,-0.722 l 0,-2.604 c 0,-0.398 -0.326,-0.722 -0.722,-0.722 l -19.918,0 c -0.397,0 -0.723,0.324 -0.723,0.722 l 0,25.417 c 0,0.398 0.326,0.723 0.723,0.723 l 19.918,0 c 0.398,0 0.722,-0.326 0.722,-0.723 l 0,-2.604 c 0,-0.397 -0.326,-0.722 -0.722,-0.722 l -16.352,0 z m 41.612,-11.308 6.23,-10.966 c 0.065,-0.114 0.065,-0.246 -0.002,-0.36 -0.066,-0.114 -0.182,-0.179 -0.312,-0.179 l -3.536,0 c -0.398,0 -0.742,0.199 -0.941,0.546 l -6.137,10.74 -9.146,0 0,-10.564 c 0,-0.398 -0.326,-0.722 -0.723,-0.722 l -2.844,0 c -0.396,0 -0.722,0.324 -0.722,0.722 l 0,25.417 c 0,0.398 0.326,0.723 0.722,0.723 l 14.616,0 c 2.267,0 4.543,-0.501 6.281,-2.041 1.666,-1.476 2.326,-3.473 2.326,-5.667 0,-1.92 -0.56,-3.666 -1.801,-5.139 -1.074,-1.278 -2.437,-2.096 -4.011,-2.51"
             id="path3009"
             style="fill:#ffffff;fill-opacity:1;fill-rule:evenodd;stroke:none" /></g></g></g></g></svg>