<?xml version="1.0" encoding="UTF-8" standalone="no"?>
<!-- Created with Inkscape (http://www.inkscape.org/) -->

<svg
   xmlns:dc="http://purl.org/dc/elements/1.1/"
   xmlns:cc="http://creativecommons.org/ns#"
   xmlns:rdf="http://www.w3.org/1999/02/22-rdf-syntax-ns#"
   xmlns:svg="http://www.w3.org/2000/svg"
   xmlns="http://www.w3.org/2000/svg"
   version="1.1"
   width="99"
   height="27"
   id="svg2985"
   xml:space="preserve"><metadata
     id="metadata2991"><rdf:RDF><cc:Work
         rdf:about=""><dc:format>image/svg+xml</dc:format><dc:type
           rdf:resource="http://purl.org/dc/dcmitype/StillImage" /><dc:title></dc:title></cc:Work></rdf:RDF></metadata><defs
     id="defs2989"><clipPath
       id="clipPath2999"><path
         d="m 0,157.198 566.929,0 L 566.929,0 0,0 0,157.198 z"
         id="path3001" /></clipPath></defs><g
     transform="matrix(1.4732143,0,0,-1.4673913,0,27.000734)"
     id="g2993"
     style="fill:#363636;fill-opacity:1"><g
       transform="matrix(0.11853336,0,0,0.11705021,0,4.414749e-4)"
       id="g2995"
       style="fill:#363636;fill-opacity:1"><g
         clip-path="url(#clipPath2999)"
         id="g2997"
         style="fill:#363636;fill-opacity:1"><g
           transform="translate(68.7305,157.1982)"
           id="g3003"
           style="fill:#363636;fill-opacity:1"><path
             d="m 0,0 c -37.27,0 -67.488,-30.22 -67.488,-67.49 0,-18.726 7.617,-35.659 19.917,-47.866 l 15.633,16.494 c -7.925,8.076 -12.832,19.14 -12.832,31.362 0,4.683 0.732,9.18 2.055,13.423 5.711,18.169 22.676,31.338 42.715,31.338 20.051,0 37.012,-13.169 42.71,-31.338 l 0.571,0 -0.422,-0.484 c 1.235,-4.091 1.912,-8.442 1.912,-12.939 0,-24.731 -20.049,-44.761 -44.771,-44.761 -2.356,0 -4.663,0.186 -6.921,0.537 l -16.58,-19.048 c 7.31,-2.725 15.239,-4.205 23.501,-4.205 37.285,0 67.493,30.192 67.493,67.487 C 67.493,-30.22 37.285,0 0,0"
             id="path3005"
             style="fill:#363636;fill-opacity:1;fill-rule:nonzero;stroke:none" /></g><g
           transform="translate(0,19.4775)"
           id="g3007"
           style="fill:#363636;fill-opacity:1"><path
             d="M 0,0 22.195,-19.477 45.23,6.948 C 36.118,10.337 27.922,15.641 21.16,22.364 L 0,0 z"
             id="path3009"
             style="fill:#363636;fill-opacity:1;fill-rule:nonzero;stroke:none" /></g><g
           transform="translate(61.8091,45.4746)"
           id="g3011"
           style="fill:#363636;fill-opacity:1"><path
             d="m 0,0 17.71,20.332 32.07,36.831 c -0.041,0.166 -0.09,0.322 -0.149,0.484 l -85.424,0 32.006,-22.33 -21.23,-22.456 C -18.425,6.157 -9.734,1.504 0,0"
             id="path3013"
             style="fill:#363636;fill-opacity:1;fill-rule:nonzero;stroke:none" /></g><g
           transform="translate(219.0381,75.7774)"
           id="g3015"
           style="fill:#363636;fill-opacity:1"><path
             d="m 0,0 c 0,-3.096 -0.654,-5.781 -1.973,-8.086 -1.298,-2.295 -3.081,-4.219 -5.322,-5.767 -2.224,-1.547 -4.853,-2.714 -7.856,-3.481 -3.008,-0.781 -6.184,-1.177 -9.519,-1.177 -2.266,0 -4.454,0.127 -6.575,0.366 -2.114,0.245 -4.148,0.679 -6.126,1.299 -1.96,0.616 -3.908,1.485 -5.847,2.588 -1.938,1.104 -3.862,2.49 -5.769,4.16 l 7.962,10.459 c 2.612,-2.08 5.256,-3.608 7.905,-4.599 2.651,-0.987 5.327,-1.475 7.995,-1.475 1.978,0 3.611,0.176 4.922,0.537 1.316,0.347 2.369,0.825 3.172,1.387 0.81,0.561 1.372,1.167 1.704,1.831 0.332,0.649 0.488,1.269 0.488,1.875 0,0.898 -0.222,1.694 -0.669,2.368 -0.456,0.689 -1.201,1.323 -2.28,1.914 -1.074,0.601 -2.485,1.201 -4.246,1.792 -1.762,0.601 -3.952,1.25 -6.574,1.973 -2.859,0.781 -5.386,1.645 -7.591,2.636 -2.214,0.977 -4.07,2.173 -5.593,3.575 -1.511,1.396 -2.661,3.061 -3.433,4.956 -0.778,1.909 -1.171,4.199 -1.171,6.88 0,2.812 0.556,5.327 1.66,7.563 1.096,2.227 2.651,4.141 4.643,5.718 1.997,1.577 4.383,2.783 7.154,3.623 2.783,0.83 5.8,1.25 9.077,1.25 3.574,0 7.102,-0.332 10.586,-0.986 3.488,-0.655 7.114,-2.237 10.866,-4.732 l -6.35,-11.45 c -2.915,1.846 -5.586,3.018 -8,3.486 -2.41,0.489 -4.837,0.713 -7.29,0.713 -2.261,0 -4.095,-0.381 -5.489,-1.103 -1.401,-0.757 -2.109,-1.993 -2.109,-3.721 0,-0.781 0.232,-1.475 0.676,-2.1 0.454,-0.62 1.211,-1.235 2.278,-1.836 1.074,-0.595 2.476,-1.176 4.207,-1.733 1.723,-0.561 3.84,-1.206 6.34,-1.924 3.938,-1.084 7.092,-2.275 9.475,-3.623 2.388,-1.347 4.212,-2.798 5.505,-4.37 C -1.89,9.194 -1.038,7.5 -0.625,5.688 -0.21,3.857 0,1.977 0,0"
             id="path3017"
             style="fill:#363636;fill-opacity:1;fill-rule:nonzero;stroke:none" /></g><g
           transform="translate(223.9502,119.3174)"
           id="g3019"
           style="fill:#363636;fill-opacity:1"><path
             d="m 0,0 42.998,0 0,-12.607 -28.784,0 0,-11.622 24.578,0 0,-12.592 -24.578,0 0,-12.173 28.784,0 0,-12.593 L 0,-61.587 0,0 z"
             id="path3021"
             style="fill:#363636;fill-opacity:1;fill-rule:nonzero;stroke:none" /></g><g
           transform="translate(306.2745,97.2373)"
           id="g3023"
           style="fill:#363636;fill-opacity:1"><path
             d="m 0,0 c 0,1.782 -0.303,3.291 -0.898,4.507 -0.591,1.23 -1.358,2.207 -2.271,2.954 -0.925,0.752 -1.985,1.289 -3.179,1.65 -1.189,0.362 -2.353,0.542 -3.481,0.542 -1.187,0 -2.376,-0.18 -3.53,-0.542 C -14.524,8.75 -15.584,8.213 -16.541,7.461 -17.49,6.714 -18.272,5.737 -18.86,4.507 -19.458,3.291 -19.751,1.782 -19.751,0 l 0,-17.437 c 0,-1.792 0.293,-3.295 0.891,-4.516 0.588,-1.206 1.37,-2.207 2.319,-2.935 0.957,-0.761 2.017,-1.303 3.182,-1.67 1.154,-0.356 2.343,-0.532 3.53,-0.532 1.128,0 2.292,0.176 3.481,0.532 1.194,0.367 2.254,0.909 3.179,1.67 0.913,0.728 1.68,1.729 2.271,2.935 0.595,1.221 0.898,2.724 0.898,4.516 L 0,0 z m 14.214,-20.024 c 0,-3.394 -0.652,-6.348 -1.961,-8.848 -1.313,-2.5 -3.059,-4.59 -5.266,-6.255 -2.207,-1.67 -4.765,-2.939 -7.683,-3.76 -2.903,-0.825 -5.964,-1.259 -9.184,-1.259 -3.206,0 -6.258,0.434 -9.136,1.259 -2.891,0.821 -5.449,2.09 -7.681,3.76 -2.234,1.665 -3.992,3.755 -5.307,6.255 -1.309,2.5 -1.958,5.454 -1.958,8.848 l 0,23.159 c 0,3.398 0.72,6.299 2.141,8.75 1.418,2.456 3.281,4.472 5.571,6.084 2.292,1.606 4.866,2.793 7.722,3.574 2.847,0.786 5.735,1.162 8.648,1.162 2.917,0 5.818,-0.42 8.703,-1.255 2.879,-0.835 5.474,-2.075 7.769,-3.706 2.295,-1.64 4.131,-3.711 5.525,-6.221 1.406,-2.5 2.097,-5.449 2.097,-8.842 l 0,-22.705 z"
             id="path3025"
             style="fill:#363636;fill-opacity:1;fill-rule:nonzero;stroke:none" /></g><g
           transform="translate(397.8521,74.3565)"
           id="g3027"
           style="fill:#363636;fill-opacity:1"><path
             d="m 0,0 c 0,-2.793 -0.535,-5.288 -1.587,-7.485 -1.062,-2.207 -2.578,-4.078 -4.539,-5.625 -1.965,-1.538 -4.297,-2.72 -7.017,-3.526 -2.722,-0.825 -5.749,-1.23 -9.072,-1.23 -4.277,0 -8.318,0.6 -12.095,1.821 -3.764,1.206 -7.414,3.169 -10.913,5.879 l 4.707,5.991 c 2.781,-1.933 5.718,-3.462 8.836,-4.531 3.118,-1.094 6.291,-1.631 9.563,-1.631 4.228,0 7.549,0.903 9.963,2.7 2.422,1.826 3.626,4.361 3.626,7.637 0,2.046 -0.469,3.721 -1.394,5.024 -0.938,1.294 -2.154,2.334 -3.633,3.116 -1.485,0.791 -3.106,1.396 -4.89,1.816 -1.787,0.43 -3.528,0.82 -5.213,1.182 -2.475,0.488 -4.858,1.103 -7.17,1.845 -2.285,0.767 -4.321,1.802 -6.065,3.14 -1.752,1.323 -3.166,2.969 -4.265,4.932 -1.081,1.967 -1.621,4.399 -1.621,7.29 0,2.602 0.469,5.005 1.399,7.212 0.933,2.216 2.285,4.096 4.036,5.654 1.75,1.582 3.86,2.822 6.34,3.725 2.488,0.904 5.288,1.363 8.428,1.363 3.625,0 7.165,-0.332 10.61,-0.996 3.438,-0.669 6.727,-1.968 9.871,-3.907 l -3.889,-7.07 c -2.661,1.572 -5.423,2.695 -8.291,3.369 -2.874,0.645 -5.667,0.996 -8.387,0.996 -1.643,0 -3.171,-0.214 -4.621,-0.644 -1.455,-0.42 -2.722,-1.074 -3.809,-1.939 -1.081,-0.874 -1.953,-1.982 -2.58,-3.32 -0.638,-1.333 -0.957,-2.866 -0.957,-4.614 0,-1.758 0.451,-3.179 1.362,-4.258 0.906,-1.094 2.056,-1.973 3.445,-2.676 1.384,-0.688 2.9,-1.26 4.529,-1.675 1.635,-0.429 3.176,-0.786 4.624,-1.093 2.595,-0.606 5.141,-1.28 7.614,-2.036 2.471,-0.757 4.678,-1.797 6.617,-3.13 C -4.512,11.982 -2.949,10.264 -1.77,8.14 -0.603,6.025 0,3.311 0,0"
             id="path3029"
             style="fill:#363636;fill-opacity:1;fill-rule:nonzero;stroke:none" /></g><g
           transform="translate(429.3755,58.1016)"
           id="g3031"
           style="fill:#363636;fill-opacity:1"><path
             d="m 0,0 c -1.756,-0.596 -3.587,-0.991 -5.481,-1.206 -1.902,-0.21 -3.308,-0.313 -4.207,-0.313 -4.783,0 -8.247,1.094 -10.388,3.257 -2.136,2.178 -3.21,5.811 -3.21,10.879 l 0,24.282 -6.343,0 0,6.978 6.535,0 1.827,10.43 5.771,0 0,-10.43 12.508,0 0,-6.978 -12.508,0 0,-21.992 c 0,-1.811 0.171,-3.315 0.503,-4.482 0.332,-1.182 0.786,-2.129 1.36,-2.822 0.573,-0.704 1.272,-1.172 2.124,-1.421 0.847,-0.235 1.821,-0.357 2.896,-0.357 1.027,0 2.16,0.069 3.4,0.225 1.243,0.146 2.559,0.322 3.946,0.503 L 0,0 z"
             id="path3033"
             style="fill:#363636;fill-opacity:1;fill-rule:nonzero;stroke:none" /></g><g
           transform="translate(460.4566,57.0322)"
           id="g3035"
           style="fill:#363636;fill-opacity:1"><path
             d="M 0,0 -0.91,4.751 C -2.78,3.608 -4.434,2.7 -5.847,2.017 -7.272,1.328 -8.542,0.806 -9.648,0.444 c -1.119,-0.361 -2.121,-0.6 -2.996,-0.717 -0.878,-0.118 -1.704,-0.166 -2.485,-0.166 -4.778,0 -8.496,1.376 -11.147,4.155 -2.661,2.778 -3.983,6.743 -3.983,11.875 l 0,29.36 7.779,0 0,-28.618 c 0,-3.496 0.786,-5.967 2.317,-7.402 1.543,-1.416 3.452,-2.1 5.757,-2.036 1.803,0 3.903,0.488 6.286,1.45 2.391,0.967 4.795,2.334 7.21,4.092 l 0,32.514 7.79,0 L 6.88,0 0,0 z"
             id="path3037"
             style="fill:#363636;fill-opacity:1;fill-rule:nonzero;stroke:none" /></g><g
           transform="translate(501.0474,92.2813)"
           id="g3039"
           style="fill:#363636;fill-opacity:1"><path
             d="m 0,0 c -2.414,0.854 -4.685,1.528 -6.797,2.046 -2.109,0.508 -4.101,0.771 -5.981,0.771 -2.408,0.059 -4.468,-0.654 -6.159,-2.133 -1.698,-1.485 -2.54,-3.985 -2.54,-7.505 l 0,-12.451 c 0,-3.433 0.723,-5.816 2.18,-7.134 1.445,-1.304 3.379,-1.948 5.801,-1.948 0.835,0 1.831,0.141 2.983,0.395 1.153,0.278 2.324,0.664 3.535,1.152 1.211,0.479 2.417,1.036 3.633,1.675 1.197,0.63 2.32,1.319 3.345,2.056 L 0,0 z M 0.926,-35.249 0,-30.596 c -3.566,-2.09 -6.423,-3.457 -8.564,-4.116 -2.139,-0.659 -4.031,-0.986 -5.66,-0.986 -2.179,0 -4.191,0.312 -6.027,0.947 -1.839,0.649 -3.421,1.611 -4.759,2.91 -1.33,1.289 -2.365,2.959 -3.127,4.981 -0.75,2.026 -1.126,4.419 -1.126,7.202 l 0,13.774 c 0,2.549 0.399,4.805 1.211,6.787 0.821,2.002 1.939,3.682 3.365,5.039 1.414,1.363 3.088,2.398 5.029,3.121 1.933,0.727 3.984,1.093 6.162,1.093 1.629,0 3.545,-0.18 5.752,-0.552 2.2,-0.356 4.79,-1.02 7.744,-1.992 l 0,22.027 7.788,0 0,-64.888 -6.862,0 z"
             id="path3041"
             style="fill:#363636;fill-opacity:1;fill-rule:nonzero;stroke:none" /></g><path
           d="m 514.817,101.979 7.796,0 0,-44.946 -7.796,0 0,44.946 z"
           id="path3043"
           style="fill:#363636;fill-opacity:1;fill-rule:nonzero;stroke:none" /><g
           transform="translate(559.1285,84.5615)"
           id="g3045"
           style="fill:#363636;fill-opacity:1"><path
             d="m 0,0 c 0,1.924 -0.339,3.56 -0.983,4.907 -0.677,1.343 -1.532,2.442 -2.591,3.281 -1.062,0.845 -2.227,1.446 -3.488,1.797 -1.27,0.371 -2.515,0.552 -3.719,0.552 -1.275,0 -2.539,-0.181 -3.801,-0.552 -1.27,-0.351 -2.437,-0.952 -3.491,-1.797 C -19.136,7.349 -19.995,6.25 -20.656,4.907 -21.315,3.56 -21.655,1.924 -21.655,0 l 0,-10.093 c 0,-1.924 0.283,-3.559 0.862,-4.912 0.564,-1.352 1.348,-2.446 2.311,-3.281 0.962,-0.84 2.11,-1.45 3.448,-1.812 1.323,-0.361 2.749,-0.537 4.253,-0.537 1.204,0 2.449,0.176 3.719,0.537 1.261,0.362 2.426,0.972 3.488,1.812 1.059,0.835 1.914,1.929 2.591,3.281 0.644,1.353 0.983,2.988 0.983,4.912 L 0,0 z m 7.801,-11.665 c 0,-2.598 -0.503,-4.912 -1.507,-6.934 -0.993,-2.026 -2.356,-3.72 -4.087,-5.112 -1.719,-1.396 -3.703,-2.461 -5.949,-3.174 -2.241,-0.737 -4.632,-1.084 -7.171,-1.084 -2.608,0 -5.029,0.347 -7.266,1.084 -2.243,0.713 -4.199,1.778 -5.864,3.174 -1.672,1.392 -2.983,3.086 -3.945,5.112 -0.972,2.022 -1.46,4.336 -1.46,6.934 l 0,13.052 c 0,2.597 0.503,4.902 1.492,6.928 1.011,2.032 2.331,3.75 3.999,5.166 1.665,1.416 3.633,2.5 5.903,3.262 2.281,0.757 4.688,1.133 7.227,1.133 2.722,0 5.217,-0.376 7.495,-1.133 C -1.06,15.981 0.906,14.897 2.566,13.481 4.238,12.065 5.522,10.347 6.438,8.315 7.337,6.289 7.801,3.984 7.801,1.387 l 0,-13.052 z"
             id="path3047"
             style="fill:#363636;fill-opacity:1;fill-rule:nonzero;stroke:none" /></g><path
           d="m 353.633,79.146 -25.664,0 0,7.231 25.664,0 0,-7.231 z"
           id="path3049"
           style="fill:#363636;fill-opacity:1;fill-rule:nonzero;stroke:none" /><g
           transform="translate(527.4634,115.958)"
           id="g3051"
           style="fill:#363636;fill-opacity:1"><path
             d="M 0,0 -8.301,-8.301 -16.597,0 0,0 z"
             id="path3053"
             style="fill:#363636;fill-opacity:1;fill-rule:nonzero;stroke:none" /></g></g></g></g></svg>